<mxfile host="app.diagrams.net" agent="Mozilla/5.0 (Windows NT 10.0; Win64; x64; rv:134.0) Gecko/20100101 Firefox/134.0" version="26.0.6">
  <diagram name="ページ1" id="1DbSrW-6x4X3U3qHsrpl">
    <mxGraphModel dx="2074" dy="1196" grid="0" gridSize="10" guides="1" tooltips="1" connect="1" arrows="1" fold="1" page="0" pageScale="1" pageWidth="827" pageHeight="1169" math="0" shadow="0">
      <root>
        <mxCell id="0" />
        <mxCell id="1" parent="0" />
        <mxCell id="6H8UI463rdipYGjHEnoJ-1" value="devices" style="sketch=0;outlineConnect=0;gradientColor=none;fontColor=#545B64;strokeColor=none;fillColor=#879196;dashed=0;verticalLabelPosition=bottom;verticalAlign=top;align=center;html=1;fontSize=12;fontStyle=0;aspect=fixed;shape=mxgraph.aws4.illustration_devices;pointerEvents=1" vertex="1" parent="1">
          <mxGeometry x="-268" y="43.5" width="100" height="73" as="geometry" />
        </mxCell>
        <mxCell id="6H8UI463rdipYGjHEnoJ-2" value="AWS Cloud" style="sketch=0;outlineConnect=0;gradientColor=none;html=1;whiteSpace=wrap;fontSize=12;fontStyle=0;shape=mxgraph.aws4.group;grIcon=mxgraph.aws4.group_aws_cloud;strokeColor=#AAB7B8;fillColor=none;verticalAlign=top;align=left;spacingLeft=30;fontColor=#AAB7B8;dashed=0;" vertex="1" parent="1">
          <mxGeometry x="-133" y="-91" width="737" height="503" as="geometry" />
        </mxCell>
        <mxCell id="6H8UI463rdipYGjHEnoJ-4" value="Amazon DynamoDB" style="sketch=0;outlineConnect=0;fontColor=#232F3E;gradientColor=none;strokeColor=#ffffff;fillColor=#232F3E;dashed=0;verticalLabelPosition=middle;verticalAlign=bottom;align=center;html=1;whiteSpace=wrap;fontSize=10;fontStyle=1;spacing=3;shape=mxgraph.aws4.productIcon;prIcon=mxgraph.aws4.dynamodb;" vertex="1" parent="1">
          <mxGeometry x="419" y="-24" width="71" height="101" as="geometry" />
        </mxCell>
        <mxCell id="6H8UI463rdipYGjHEnoJ-5" value="Lambda&#xa;Function" style="sketch=0;outlineConnect=0;fontColor=#232F3E;gradientColor=none;strokeColor=#232F3E;fillColor=#ffffff;dashed=0;verticalLabelPosition=bottom;verticalAlign=top;align=center;html=1;fontSize=12;fontStyle=0;aspect=fixed;shape=mxgraph.aws4.resourceIcon;resIcon=mxgraph.aws4.lambda_function;" vertex="1" parent="1">
          <mxGeometry x="219" y="50" width="60" height="60" as="geometry" />
        </mxCell>
        <mxCell id="6H8UI463rdipYGjHEnoJ-6" value="Amazon API Gateway" style="sketch=0;outlineConnect=0;fontColor=#232F3E;gradientColor=none;strokeColor=#ffffff;fillColor=#232F3E;dashed=0;verticalLabelPosition=middle;verticalAlign=bottom;align=center;html=1;whiteSpace=wrap;fontSize=10;fontStyle=1;spacing=3;shape=mxgraph.aws4.productIcon;prIcon=mxgraph.aws4.api_gateway;" vertex="1" parent="1">
          <mxGeometry x="-6" y="25" width="80" height="110" as="geometry" />
        </mxCell>
        <mxCell id="6H8UI463rdipYGjHEnoJ-7" value="Amazon S3" style="sketch=0;outlineConnect=0;fontColor=#232F3E;gradientColor=none;strokeColor=#ffffff;fillColor=#232F3E;dashed=0;verticalLabelPosition=middle;verticalAlign=bottom;align=center;html=1;whiteSpace=wrap;fontSize=10;fontStyle=1;spacing=3;shape=mxgraph.aws4.productIcon;prIcon=mxgraph.aws4.s3;" vertex="1" parent="1">
          <mxGeometry x="-6" y="215" width="72" height="96" as="geometry" />
        </mxCell>
        <mxCell id="6H8UI463rdipYGjHEnoJ-8" value="Amazon S3" style="sketch=0;outlineConnect=0;fontColor=#232F3E;gradientColor=none;strokeColor=#ffffff;fillColor=#232F3E;dashed=0;verticalLabelPosition=middle;verticalAlign=bottom;align=center;html=1;whiteSpace=wrap;fontSize=10;fontStyle=1;spacing=3;shape=mxgraph.aws4.productIcon;prIcon=mxgraph.aws4.s3;" vertex="1" parent="1">
          <mxGeometry x="419" y="101" width="69" height="93" as="geometry" />
        </mxCell>
        <mxCell id="6H8UI463rdipYGjHEnoJ-10" value="" style="edgeStyle=orthogonalEdgeStyle;html=1;endArrow=block;elbow=vertical;startArrow=none;endFill=1;strokeColor=#545B64;rounded=0;fontSize=12;startSize=8;endSize=8;curved=1;" edge="1" parent="1" source="6H8UI463rdipYGjHEnoJ-1" target="6H8UI463rdipYGjHEnoJ-6">
          <mxGeometry width="100" relative="1" as="geometry">
            <mxPoint x="-166" y="67" as="sourcePoint" />
            <mxPoint x="-66" y="67" as="targetPoint" />
          </mxGeometry>
        </mxCell>
        <mxCell id="6H8UI463rdipYGjHEnoJ-14" value="" style="edgeStyle=orthogonalEdgeStyle;html=1;endArrow=block;elbow=vertical;startArrow=none;endFill=1;strokeColor=#545B64;rounded=0;fontSize=12;startSize=8;endSize=8;curved=1;" edge="1" parent="1" target="6H8UI463rdipYGjHEnoJ-5">
          <mxGeometry width="100" relative="1" as="geometry">
            <mxPoint x="74" y="79.5" as="sourcePoint" />
            <mxPoint x="174" y="79.5" as="targetPoint" />
          </mxGeometry>
        </mxCell>
        <mxCell id="6H8UI463rdipYGjHEnoJ-24" value="" style="endArrow=classic;html=1;rounded=0;fontSize=12;startSize=8;endSize=8;curved=1;" edge="1" parent="1" target="6H8UI463rdipYGjHEnoJ-4">
          <mxGeometry width="50" height="50" relative="1" as="geometry">
            <mxPoint x="279" y="85" as="sourcePoint" />
            <mxPoint x="329" y="35" as="targetPoint" />
          </mxGeometry>
        </mxCell>
        <mxCell id="6H8UI463rdipYGjHEnoJ-25" value="" style="endArrow=classic;html=1;rounded=0;fontSize=12;startSize=8;endSize=8;curved=1;" edge="1" parent="1" target="6H8UI463rdipYGjHEnoJ-8">
          <mxGeometry width="50" height="50" relative="1" as="geometry">
            <mxPoint x="279" y="84" as="sourcePoint" />
            <mxPoint x="329" y="34" as="targetPoint" />
          </mxGeometry>
        </mxCell>
        <mxCell id="6H8UI463rdipYGjHEnoJ-29" value="" style="endArrow=classic;html=1;rounded=0;fontSize=12;startSize=8;endSize=8;curved=1;" edge="1" parent="1" target="6H8UI463rdipYGjHEnoJ-7">
          <mxGeometry width="50" height="50" relative="1" as="geometry">
            <mxPoint x="-168" y="79" as="sourcePoint" />
            <mxPoint x="-118" y="29" as="targetPoint" />
          </mxGeometry>
        </mxCell>
        <mxCell id="6H8UI463rdipYGjHEnoJ-30" value="Flask(python)" style="text;strokeColor=none;fillColor=none;html=1;align=center;verticalAlign=middle;whiteSpace=wrap;rounded=0;fontSize=16;" vertex="1" parent="1">
          <mxGeometry x="214" y="154" width="60" height="30" as="geometry" />
        </mxCell>
        <mxCell id="6H8UI463rdipYGjHEnoJ-32" value="&lt;div&gt;フロントエンド&lt;/div&gt;&lt;div&gt;(HTML/CSS,JavaScript)&lt;br&gt;&lt;/div&gt;" style="text;strokeColor=none;fillColor=none;html=1;align=center;verticalAlign=middle;whiteSpace=wrap;rounded=0;fontSize=16;" vertex="1" parent="1">
          <mxGeometry x="-64" y="321" width="188" height="30" as="geometry" />
        </mxCell>
        <mxCell id="6H8UI463rdipYGjHEnoJ-35" value="&lt;div&gt;HTTPメソッド（PUT,GET,POST...）&lt;/div&gt;&lt;div&gt;&lt;br&gt;&lt;/div&gt;" style="text;strokeColor=none;fillColor=none;html=1;align=center;verticalAlign=middle;whiteSpace=wrap;rounded=0;fontSize=16;" vertex="1" parent="1">
          <mxGeometry x="100" y="43.5" width="106" height="24" as="geometry" />
        </mxCell>
        <mxCell id="6H8UI463rdipYGjHEnoJ-36" value="画像" style="text;strokeColor=none;fillColor=none;html=1;align=center;verticalAlign=middle;whiteSpace=wrap;rounded=0;fontSize=16;" vertex="1" parent="1">
          <mxGeometry x="423.5" y="202" width="60" height="30" as="geometry" />
        </mxCell>
      </root>
    </mxGraphModel>
  </diagram>
</mxfile>
